# Blender v2.70 (sub 0) OBJ File: 'tank.blend'
# www.blender.org
v 1.000000 -1.000000 -1.000000
v 1.000000 -1.000000 1.000000
v -1.000000 -1.000000 1.000000
v -1.000000 -1.000000 -1.000000
v 1.000000 0.000000 -1.000000
v 1.000000 0.000000 1.000000
v -1.000000 0.000000 1.000000
v -1.000000 0.000000 -1.000000
v 1.000000 -1.000000 2.000000
v -1.000000 -1.000000 2.000000
v 1.000000 -0.000000 2.000000
v -1.000001 -0.000000 2.000000
v 1.000000 -1.000000 -2.000000
v -0.999999 -1.000000 -2.000000
v 1.000001 0.000000 -2.000000
v -1.000000 0.000000 -2.000000
v 2.000000 -1.000000 -1.000000
v 2.000000 -0.000000 -0.999999
v 2.000000 -1.000000 -2.000000
v 2.000001 -0.000000 -1.999999
v 2.000000 -0.999999 1.000000
v 1.999999 0.000001 1.000001
v 2.000000 -0.999999 2.000000
v 1.999999 0.000001 2.000001
v -2.000000 -1.000000 -1.000001
v -2.000000 -0.000000 -1.000000
v -1.999999 -1.000000 -2.000001
v -2.000000 0.000000 -2.000000
v -2.000000 -1.000000 1.000000
v -2.000000 -0.000000 0.999999
v -2.000000 -1.000000 2.000000
v -2.000001 -0.000000 1.999999
v 0.500000 1.000000 -0.500000
v 0.500000 1.000000 0.500000
v -0.500000 1.000000 0.500000
v -0.500000 1.000000 -0.500000
vn 1.000000 -0.000000 0.000001
vn 0.000000 -1.000000 0.000000
vn -0.000000 1.000000 0.000000
vn -1.000000 -0.000000 -0.000000
vn -0.000000 -0.000000 1.000000
vn 0.000000 0.000000 -1.000000
vn 0.000001 -1.000000 -0.000000
vn -0.894427 0.447214 -0.000000
vn 1.000000 -0.000001 0.000000
vn 1.000000 0.000001 0.000000
vn -0.000001 1.000000 0.000000
vn -0.000000 0.447214 0.894427
vn 0.000000 0.447214 -0.894427
vn 0.894427 0.447213 0.000001
vn 1.000000 -0.000000 0.000000
vn 0.000001 0.000000 -1.000000
vn 0.894427 0.447214 0.000001
s off
f 1//1 5//1 6//1
f 2//2 3//2 4//2
f 7//3 12//3 11//3
f 7//4 8//4 4//4
f 5//3 15//3 16//3
f 9//5 11//5 12//5
f 4//2 25//2 27//2
f 13//2 19//2 17//2
f 13//6 14//6 16//6
f 2//2 9//2 10//2
f 2//7 21//7 23//7
f 3//2 10//2 31//2
f 7//8 35//8 36//8
f 4//2 14//2 13//2
f 17//9 19//9 20//9
f 5//3 18//3 20//3
f 15//6 20//6 19//6
f 1//5 17//5 18//5
f 21//10 22//10 24//10
f 9//5 23//5 24//5
f 6//11 11//11 24//11
f 6//6 22//6 21//6
f 26//4 28//4 27//4
f 16//3 28//3 26//3
f 14//6 27//6 28//6
f 8//5 26//5 25//5
f 30//4 29//4 31//4
f 12//5 32//5 31//5
f 7//3 30//3 32//3
f 3//6 29//6 30//6
f 33//3 36//3 35//3
f 7//12 6//12 34//12
f 8//13 36//13 33//13
f 5//14 33//14 34//14
f 2//10 1//10 6//10
f 1//2 2//2 4//2
f 6//3 7//3 11//3
f 3//4 7//4 4//4
f 8//3 5//3 16//3
f 10//5 9//5 12//5
f 14//2 4//2 27//2
f 1//2 13//2 17//2
f 15//6 13//6 16//6
f 3//2 2//2 10//2
f 9//7 2//7 23//7
f 29//2 3//2 31//2
f 8//8 7//8 36//8
f 1//2 4//2 13//2
f 18//15 17//15 20//15
f 15//3 5//3 20//3
f 13//6 15//6 19//6
f 5//5 1//5 18//5
f 23//15 21//15 24//15
f 11//5 9//5 24//5
f 22//11 6//11 24//11
f 2//6 6//6 21//6
f 25//4 26//4 27//4
f 8//3 16//3 26//3
f 16//16 14//16 28//16
f 4//5 8//5 25//5
f 32//4 30//4 31//4
f 10//5 12//5 31//5
f 12//3 7//3 32//3
f 7//6 3//6 30//6
f 34//3 33//3 35//3
f 35//12 7//12 34//12
f 5//13 8//13 33//13
f 6//17 5//17 34//17
